<svg xmlns="http://www.w3.org/2000/svg" viewBox="0 0 64 64">
  <defs>
    <linearGradient id="paperA" x1="13" x2="31" y1="9" y2="55" gradientUnits="userSpaceOnUse">
      <stop stop-color="#a9ebe0"/>
      <stop offset="1" stop-color="#8999ff"/>
    </linearGradient>
    <linearGradient id="paperB" x1="28" x2="47" y1="9" y2="55" gradientUnits="userSpaceOnUse">
      <stop stop-color="#e2d8ff"/>
      <stop offset="1" stop-color="#866bec"/>
    </linearGradient>
    <linearGradient id="shine" x1="8" x2="56" y1="7" y2="58" gradientUnits="userSpaceOnUse">
      <stop stop-color="#ffffff" stop-opacity=".22"/>
      <stop offset=".45" stop-color="#ffffff" stop-opacity=".04"/>
      <stop offset="1" stop-color="#ffffff" stop-opacity="0"/>
    </linearGradient>
  </defs>
  <rect width="64" height="64" rx="15" fill="#0a0e24"/>
  <path d="M17 15c.7-4 3.6-6 7.2-6h16.2c4.2 0 7.3 3.8 6.6 8l-5 30c-.7 4-3.6 6-7.2 6H18.6c-4.2 0-7.3-3.8-6.6-8l5-30Z" fill="url(#paperA)" opacity=".86"/>
  <path d="M29 15c.7-4 3.6-6 7.2-6h9.2c4.2 0 7.3 3.8 6.6 8l-5 30c-.7 4-3.6 6-7.2 6h-9.2c-4.2 0-7.3-3.8-6.6-8l5-30Z" fill="url(#paperB)" opacity=".84"/>
  <path d="M22 45V19h13.2c6.1 0 10.1 3.6 10.1 8.9 0 3.6-1.9 6.4-5.1 7.8L47 45H36.8l-5.4-7.9h-1.8V45H22Zm7.6-14.4h4.5c2.3 0 3.6-1 3.6-2.8s-1.3-2.8-3.6-2.8h-4.5v5.6Z" fill="#fffaf0"/>
  <rect width="64" height="64" rx="15" fill="url(#shine)"/>
  <circle cx="50" cy="10" r="7.2" fill="#dda04a" stroke="#fffaf0" stroke-width="3"/>
</svg>
